<svg width="403" height="107" viewBox="0 0 403 107" fill="none" xmlns="http://www.w3.org/2000/svg">
<path d="M60.024 98.856C60.024 100.733 59 102.312 56.952 103.592C54.9893 104.872 53.1547 105.512 51.448 105.512C48.2053 105.512 45.6027 105.128 43.64 104.36C41.7627 103.507 40.0133 101.971 38.392 99.752C36.1733 101.715 33.144 103.208 29.304 104.232C25.464 105.171 21.9227 105.64 18.68 105.64C13.3893 105.64 9.03733 104.232 5.624 101.416C2.21067 98.5147 0.504 94.2907 0.504 88.744C0.504 86.3547 1.144 84.1787 2.424 82.216C3.704 80.168 5.45333 78.376 7.672 76.84C10.1467 75.2187 12.9627 73.9813 16.12 73.128C19.2773 72.1893 22.5627 71.72 25.976 71.72C27.768 71.72 29.9013 72.0613 32.376 72.744C34.8507 73.4267 36.7707 74.152 38.136 74.92V72.872C38.136 68.264 37.0267 65.1067 34.808 63.4C32.5893 61.608 29.0053 60.712 24.056 60.712C22.6053 60.712 21.1547 61.0107 19.704 61.608C18.3387 62.2053 16.76 63.016 14.968 64.04C12.5787 65.32 10.3173 65.96 8.184 65.96C7.416 65.96 6.69067 65.448 6.008 64.424C5.32533 63.3147 4.984 62.3333 4.984 61.48C4.984 59.0053 6.136 56.872 8.44 55.08C10.8293 53.288 13.6453 51.9653 16.888 51.112C20.1307 50.1733 23.032 49.704 25.592 49.704C28.152 49.704 31.096 50.216 34.424 51.24C37.752 52.1787 40.4827 53.5013 42.616 55.208C45.176 57.4267 47.1387 60.0293 48.504 63.016C49.9547 65.9173 50.68 69.1173 50.68 72.616C50.68 73.7253 50.5947 75.3893 50.424 77.608C50.2533 79.9973 50.168 82.0453 50.168 83.752C50.168 84.52 50.0827 85.672 49.912 87.208C49.7413 89.0853 49.656 90.5787 49.656 91.688C49.656 92.712 50.04 93.608 50.808 94.376C51.576 95.0587 52.472 95.4 53.496 95.4L57.08 95.272C58.0187 95.272 58.744 95.6133 59.256 96.296C59.768 96.9787 60.024 97.832 60.024 98.856ZM18.808 95.528C22.4773 95.528 25.5493 95.144 28.024 94.376C30.4987 93.608 33.4853 92.2 36.984 90.152C37.3253 88.7013 37.5387 86.7813 37.624 84.392C32.9307 82.1733 29.048 81.064 25.976 81.064C22.4773 81.064 19.3627 81.704 16.632 82.984C13.9013 84.264 12.536 86.5253 12.536 89.768C12.536 91.3893 13.2187 92.7547 14.584 93.864C15.9493 94.9733 17.3573 95.528 18.808 95.528ZM87.478 99.88C87.478 101.331 86.9233 102.611 85.814 103.72C84.7047 104.829 83.3393 105.384 81.718 105.384C79.158 105.384 77.2807 104.915 76.086 103.976C74.8913 102.952 74.294 101.117 74.294 98.472C74.294 95.3147 74.2087 91.176 74.038 86.056C73.8673 81.7893 73.782 78.2053 73.782 75.304C73.782 73.9387 73.8673 72.1467 74.038 69.928C74.2087 67.88 74.294 66.344 74.294 65.32C74.038 63.6987 73.398 62.376 72.374 61.352C71.35 60.2427 70.0273 59.688 68.406 59.688C67.638 59.688 66.998 59.3467 66.486 58.664C65.974 57.896 65.718 57.128 65.718 56.36C65.718 54.3973 66.486 52.904 68.022 51.88C69.6433 50.856 71.5633 50.344 73.782 50.344C78.39 50.344 81.59 53.0747 83.382 58.536C85.6007 55.976 88.118 53.928 90.934 52.392C93.8353 50.7707 96.6087 49.96 99.254 49.96C102.411 49.96 105.27 50.8133 107.83 52.52C110.475 54.2267 111.798 56.5307 111.798 59.432C111.798 61.0533 111.073 62.7173 109.622 64.424C108.257 66.1307 106.849 66.984 105.398 66.984C104.63 66.984 103.947 66.8133 103.35 66.472C102.838 66.0453 102.198 65.448 101.43 64.68C100.577 63.8267 99.8513 63.2293 99.254 62.888C98.6567 62.4613 97.974 62.248 97.206 62.248C95.8407 62.248 94.5607 62.4613 93.366 62.888C92.1713 63.3147 91.3607 63.8267 90.934 64.424C89.5687 66.5573 88.5447 68.4773 87.862 70.184C87.2647 71.8907 86.966 73.7253 86.966 75.688C86.966 77.1387 86.9233 78.2907 86.838 79.144L86.71 86.44C86.71 87.5493 86.7527 88.7867 86.838 90.152C86.9233 91.5173 87.0087 92.5413 87.094 93.224C87.35 95.528 87.478 97.7467 87.478 99.88ZM125.937 22.824C128.924 23.08 131.526 23.8907 133.745 25.256C135.964 26.536 137.073 28.4987 137.073 31.144C137.073 33.1067 136.134 34.6853 134.257 35.88C132.465 36.9893 130.289 37.544 127.729 37.544C125.254 37.544 123.548 36.904 122.609 35.624C121.67 34.344 121.201 33.0213 121.201 31.656C121.201 29.096 121.457 26.9627 121.969 25.256C122.566 23.5493 123.889 22.7387 125.937 22.824ZM136.177 79.528V83.24C136.177 86.568 136.262 89.7253 136.433 92.712C136.689 95.6133 136.988 98.5573 137.329 101.544C137.329 102.568 136.732 103.507 135.537 104.36C134.342 105.128 133.233 105.512 132.209 105.512C130.588 105.512 128.924 105.213 127.217 104.616C125.596 103.933 124.614 103.123 124.273 102.184C123.761 99.4533 123.505 97.0213 123.505 94.888C123.505 87.8907 123.292 80.04 122.865 71.336C122.524 63.656 122.353 58.28 122.353 55.208C122.353 53.672 123.121 52.3493 124.657 51.24C126.193 50.1307 127.814 49.576 129.521 49.576C131.996 49.576 133.702 50.1307 134.641 51.24C135.665 52.3493 136.177 54.0987 136.177 56.488V79.528Z" fill="#048C04"/>
<path d="M152.287 79.528C156.34 73.7253 160.415 68.0933 164.511 62.632C168.65 57.1707 172.746 51.752 176.799 46.376C180.895 41 184.842 35.5387 188.639 29.992C189.748 28.3707 190.068 27.1547 189.599 26.344C189.13 25.4907 187.956 25.0427 186.079 25C181.343 24.872 176.586 24.808 171.807 24.808C167.028 24.808 162.271 24.744 157.535 24.616C155.06 24.5307 153.162 24.104 151.839 23.336C150.516 22.568 149.855 21.2027 149.855 19.24C149.855 17.32 150.602 16.04 152.095 15.4C153.588 14.7173 155.615 14.4187 158.175 14.504C164.319 14.632 170.484 14.8027 176.671 15.016C182.858 15.2293 189.023 15.528 195.167 15.912C197.514 16.04 199.284 16.7653 200.479 18.088C201.674 19.4107 202.271 21.0533 202.271 23.016C202.271 24.3813 201.994 25.768 201.439 27.176C199.818 31.528 198.218 35.752 196.639 39.848C195.06 43.9013 193.418 48.0187 191.711 52.2C190.004 56.3387 188.17 60.712 186.207 65.32C182.239 63.4427 179.252 62.44 177.247 62.312C175.242 62.1413 173.919 62.8027 173.279 64.296C172.596 65.8747 173.044 67.3467 174.623 68.712C176.244 70.0347 178.996 71.592 182.879 73.384C182.58 74.28 182.196 75.304 181.727 76.456C181.258 77.608 180.831 78.632 180.447 79.528C175.412 76.7547 171.722 75.176 169.375 74.792C167.028 74.3653 165.471 74.9627 164.703 76.584C163.807 78.4187 164.319 80.104 166.239 81.64C168.159 83.1333 171.871 84.9467 177.375 87.08C177.29 87.2933 177.204 87.5067 177.119 87.72C177.034 87.9333 176.948 88.1467 176.863 88.36C176.778 88.5733 176.692 88.7867 176.607 89C175.924 90.792 175.946 92.4987 176.671 94.12C177.439 95.6987 178.996 96.4667 181.343 96.424C185.183 96.3387 188.81 96.1253 192.223 95.784C195.636 95.4 199.135 95.1867 202.719 95.144C205.663 95.0587 207.69 95.4427 208.799 96.296C209.951 97.1493 210.527 98.6 210.527 100.648C210.527 102.013 210.164 103.08 209.439 103.848C208.756 104.616 207.796 105.171 206.559 105.512C205.322 105.853 203.871 106.067 202.207 106.152C196.532 106.408 190.346 106.493 183.647 106.408C176.991 106.323 170.42 106.067 163.935 105.64C159.199 105.299 155.487 103.635 152.799 100.648C150.111 97.6613 148.767 94.184 148.767 90.216C148.767 88.4667 149.044 86.6747 149.599 84.84C150.196 83.0053 151.092 81.2347 152.287 79.528ZM194.271 87.72C192.607 87.72 191.178 87.208 189.983 86.184C188.831 85.1173 188.255 83.752 188.255 82.088C188.255 79.7413 188.916 77.992 190.239 76.84C191.562 75.6453 193.247 75.048 195.295 75.048C197.172 75.048 198.666 75.5813 199.775 76.648C200.884 77.7147 201.439 79.5067 201.439 82.024C201.439 83.9013 200.778 85.3307 199.455 86.312C198.132 87.2507 196.404 87.72 194.271 87.72ZM194.271 101.8C194.271 101.459 194.271 101.16 194.271 100.904C194.271 100.605 194.271 100.307 194.271 100.008C194.271 98.7707 194.74 97.96 195.679 97.576C196.66 97.1493 197.727 96.936 198.879 96.936C200.33 96.936 201.439 97.2347 202.207 97.832C202.975 98.4293 203.316 99.24 203.231 100.264C203.231 100.563 203.21 100.904 203.167 101.288C203.124 101.629 203.103 101.971 203.103 102.312C203.06 103.251 202.548 103.912 201.567 104.296C200.628 104.68 199.604 104.872 198.495 104.872C197.428 104.872 196.447 104.595 195.551 104.04C194.698 103.485 194.271 102.739 194.271 101.8ZM175.455 100.904C175.583 100.52 175.711 100.115 175.839 99.688C175.967 99.2613 176.095 98.856 176.223 98.472C176.394 97.9173 176.778 97.5333 177.375 97.32C177.972 97.064 178.676 96.936 179.487 96.936C180.767 96.936 182.004 97.256 183.199 97.896C184.394 98.536 184.884 99.4107 184.671 100.52C184.628 100.819 184.564 101.16 184.479 101.544C184.436 101.885 184.372 102.227 184.287 102.568C184.116 103.421 183.647 104.061 182.879 104.488C182.154 104.872 181.343 105.064 180.447 105.064C179.466 105.064 178.527 104.893 177.631 104.552C176.778 104.211 176.138 103.72 175.711 103.08C175.284 102.44 175.199 101.715 175.455 100.904ZM170.079 12.456C170.42 14.504 170.719 16.5307 170.975 18.536C171.231 20.5413 171.444 22.568 171.615 24.616C171.871 27.56 171.679 29.7573 171.039 31.208C170.442 32.6587 169.14 33.4907 167.135 33.704C165.215 33.832 163.892 33.192 163.167 31.784C162.442 30.376 161.887 28.2 161.503 25.256C161.247 23.336 161.012 21.3093 160.799 19.176C160.628 17.0427 160.479 14.9307 160.351 12.84C160.095 8.488 160.351 5.672 161.119 4.392C161.93 3.11199 163.124 2.47199 164.703 2.47199C166.196 2.47199 167.327 3.30399 168.095 4.96799C168.906 6.632 169.567 9.128 170.079 12.456ZM185.055 18.088L176.735 17.448C177.162 12.7547 177.588 9.192 178.015 6.75999C178.484 4.32799 179.082 2.68533 179.807 1.83199C180.575 0.978661 181.642 0.551994 183.007 0.551994C185.311 0.551994 186.548 1.85333 186.719 4.45599C186.89 7.016 186.335 11.56 185.055 18.088Z" fill="#800080"/>
<path d="M268.347 63.912C269.03 65.1067 269.584 66.856 270.011 69.16C270.438 71.3787 270.651 73.384 270.651 75.176C270.651 78.504 269.926 83.24 268.475 89.384C262.587 100.136 253.883 105.512 242.363 105.512C238.096 105.512 233.744 104.104 229.307 101.288C224.87 98.472 221.798 95.2293 220.091 91.56C217.787 84.2213 216.635 79.5707 216.635 77.608C216.635 74.1947 217.36 70.568 218.811 66.728C220.347 62.888 222.267 59.56 224.571 56.744C226.022 54.7813 228.624 53.1173 232.379 51.752C236.134 50.3013 239.547 49.576 242.619 49.576C248.592 49.576 253.67 50.728 257.851 53.032C262.032 55.2507 265.531 58.8773 268.347 63.912ZM257.211 84.52C257.638 83.4107 257.851 80.552 257.851 75.944C257.851 73.4693 257.382 71.0373 256.443 68.648C255.59 66.2587 254.31 64.2107 252.603 62.504C252.432 62.3333 251.963 62.0773 251.195 61.736C250.427 61.3093 249.36 60.9253 247.995 60.584C246.715 60.1573 245.222 59.944 243.515 59.944C238.736 59.944 235.238 61.864 233.019 65.704C230.8 69.544 229.691 73.896 229.691 78.76C229.691 79.6133 229.904 81.2347 230.331 83.624C230.843 86.0133 231.27 87.5067 231.611 88.104C231.867 88.7013 232.507 89.5547 233.531 90.664C234.64 91.688 235.963 92.6267 237.499 93.48C239.12 94.248 240.784 94.632 242.491 94.632C246.331 94.632 249.403 93.736 251.707 91.944C254.011 90.0667 255.846 87.592 257.211 84.52ZM341.527 95.144C341.954 95.3147 342.636 95.528 343.575 95.784C344.514 96.04 345.196 96.296 345.623 96.552C346.05 96.808 346.263 97.192 346.263 97.704C346.348 99.752 345.58 101.459 343.959 102.824C342.423 104.104 340.588 104.744 338.455 104.744C335.127 104.744 332.524 103.848 330.647 102.056C328.77 100.264 327.404 97.5333 326.551 93.864C326.21 92.4133 326.039 90.408 326.039 87.848C326.039 86.3973 326.124 84.0507 326.295 80.808C326.466 77.3947 326.551 74.664 326.551 72.616C326.551 69.6293 325.698 67.0267 323.991 64.808C322.37 62.504 320.066 61.352 317.079 61.352C315.287 61.352 313.41 61.9067 311.447 63.016C309.484 64.04 308.119 65.32 307.351 66.856C306.071 69.3307 305.175 72.0187 304.663 74.92C303.724 80.04 303.255 85.3733 303.255 90.92C303.255 93.5653 303.298 95.6133 303.383 97.064C303.383 97.4053 303.383 98.088 303.383 99.112C303.468 100.051 303.383 100.947 303.127 101.8C302.956 102.568 302.615 103.293 302.103 103.976C301.676 104.403 300.994 104.744 300.055 105C299.202 105.341 298.391 105.512 297.623 105.512C296.428 105.512 294.935 105 293.143 103.976C291.351 102.952 290.327 101.8 290.071 100.52L289.943 98.344C289.943 97.576 290.028 96.68 290.199 95.656C291.223 89.6827 291.735 84.4773 291.735 80.04C291.735 78.0773 291.692 76.5413 291.607 75.432L291.479 69.416C291.479 67.368 290.967 65.4053 289.943 63.528C288.919 61.5653 287.724 60.584 286.359 60.584C285.932 60.584 285.335 60.7547 284.567 61.096C283.799 61.352 283.159 61.48 282.647 61.48C281.794 61.48 280.855 61.0533 279.831 60.2C278.892 59.3467 278.423 58.4507 278.423 57.512C278.423 55.72 279.02 54.2693 280.215 53.16C281.495 52.136 282.732 51.3253 283.927 50.728C285.207 50.1307 286.658 49.832 288.279 49.832C289.644 49.832 290.754 49.96 291.607 50.216C292.46 50.472 293.612 51.0267 295.063 51.88C295.831 52.3067 296.727 53.2453 297.751 54.696C298.775 56.1467 299.628 58.1947 300.311 60.84C302.53 56.744 305.26 53.8853 308.503 52.264C311.831 50.5573 316.055 49.704 321.175 49.704C323.138 49.704 325.228 50.344 327.447 51.624C329.751 52.904 331.714 54.3973 333.335 56.104C334.871 57.9813 336.151 60.328 337.175 63.144C338.199 65.8747 338.711 68.3493 338.711 70.568C338.711 71.848 338.626 73.9387 338.455 76.84C338.199 79.144 338.071 81.576 338.071 84.136C338.071 90.1093 339.223 93.7787 341.527 95.144ZM386.766 39.592C390.606 39.592 394.147 41.5547 397.39 45.48C400.633 49.32 402.254 52.8187 402.254 55.976C402.254 59.048 401.187 62.2053 399.054 65.448C400.078 66.728 400.59 67.8373 400.59 68.776C400.59 71.1653 400.035 75.2613 398.926 81.064C397.902 86.8667 397.262 90.664 397.006 92.456C396.835 94.248 396.665 95.6987 396.494 96.808C396.323 97.832 396.11 98.856 395.854 99.88C395.513 102.013 394.745 103.08 393.55 103.08C392.014 103.08 390.734 101.757 389.71 99.112C388.771 96.3813 388.217 92.8827 388.046 88.616C380.451 98.2587 373.411 103.08 366.926 103.08C363.001 103.08 359.118 101.416 355.278 98.088C351.523 94.6747 349.646 91.176 349.646 87.592C349.646 82.472 351.523 76.1573 355.278 68.648C359.033 61.0533 363.897 54.312 369.87 48.424C375.843 42.536 381.475 39.592 386.766 39.592ZM392.654 62.12C392.654 54.184 391.075 50.216 387.918 50.216C384.59 50.216 380.707 52.6053 376.27 57.384C371.833 62.0773 368.078 67.4107 365.006 73.384C361.934 79.3573 360.398 84.0933 360.398 87.592C360.398 89.0427 360.995 90.2373 362.19 91.176C363.385 92.0293 364.793 92.456 366.414 92.456C370.425 92.456 374.947 89.768 379.982 84.392C385.017 78.9307 388.515 72.3173 390.478 64.552C390.734 63.272 391.459 62.504 392.654 62.248V62.12Z" fill="#0606E8"/>
</svg>
