<svg width="96" height="165" viewBox="0 0 96 165" fill="none" xmlns="http://www.w3.org/2000/svg">
<rect y="35" width="96" height="109" fill="white"/>
<path d="M14.904 121.096C15.7147 117.939 16.7387 114.013 17.976 109.32C19.2133 104.584 20.5573 99.5493 22.008 94.216C23.4587 88.84 24.888 83.656 26.296 78.664C28.8133 79.688 31.1173 80.4773 33.208 81.032C35.3413 81.544 37.048 81.608 38.328 81.224C39.608 80.84 40.248 79.7947 40.248 78.088C40.248 76.936 39.416 75.8267 37.752 74.76C36.1307 73.6933 32.9733 72.584 28.28 71.432C28.664 69.9387 29.048 68.5307 29.432 67.208C29.816 65.8427 30.1787 64.5627 30.52 63.368C33.464 64.6053 36.2587 65.608 38.904 66.376C41.5493 67.144 43.704 67.3787 45.368 67.08C47.032 66.7813 47.864 65.672 47.864 63.752C47.864 62.344 46.7973 61.064 44.664 59.912C42.5307 58.76 38.52 57.5227 32.632 56.2C32.6747 56.0293 32.696 55.9013 32.696 55.816C32.7387 55.688 32.7813 55.5387 32.824 55.368C33.9333 51.656 35.96 48.776 38.904 46.728C41.8907 44.68 45.9653 43.6987 51.128 43.784C56.4187 43.784 60.5573 44.9573 63.544 47.304C66.5307 49.608 68.408 53.2987 69.176 58.376C69.2613 59.016 69.3467 59.6987 69.432 60.424C69.56 61.1067 69.6667 61.832 69.752 62.6C69.8373 63.2827 69.9227 63.9867 70.008 64.712C70.136 65.4373 70.2427 66.184 70.328 66.952C70.4133 67.3787 70.4773 67.8053 70.52 68.232C70.6053 68.6587 70.6693 69.0853 70.712 69.512C70.7973 69.9387 70.8613 70.3867 70.904 70.856C71.032 71.8373 71.16 72.84 71.288 73.864C71.416 74.888 71.5653 75.9333 71.736 77C71.8213 77.64 71.9067 78.3013 71.992 78.984C72.12 79.624 72.2053 80.3067 72.248 81.032C72.3333 81.544 72.3973 82.0773 72.44 82.632C72.5253 83.144 72.6107 83.6773 72.696 84.232C72.7813 84.744 72.8453 85.2773 72.888 85.832C73.4 89.544 73.8907 93.32 74.36 97.16C74.872 101 75.3627 104.776 75.832 108.488C76.3013 112.2 76.728 115.72 77.112 119.048C77.5387 122.376 77.9227 125.405 78.264 128.136C78.5627 130.483 78.2 132.445 77.176 134.024C76.152 135.645 74.68 136.456 72.76 136.456C71.096 136.456 69.6667 135.816 68.472 134.536C67.32 133.299 66.616 131.464 66.36 129.032C65.5493 121.352 64.824 113.373 64.184 105.096C63.544 96.776 62.84 88.3707 62.072 79.88C61.816 76.936 61.2827 74.888 60.472 73.736C59.6613 72.584 58.3173 72.008 56.44 72.008C54.7333 72.008 53.112 72.52 51.576 73.544C50.0827 74.568 48.3973 76.9787 46.52 80.776C42.8933 88.1147 39.288 95.624 35.704 103.304C32.1627 110.984 28.6853 118.365 25.272 125.448C24.4187 127.197 23.48 128.477 22.456 129.288C21.432 130.056 20.28 130.44 19 130.44C17.1653 130.44 15.8427 129.565 15.032 127.816C14.264 126.067 14.2213 123.827 14.904 121.096ZM29.752 110.6L32.184 101.512C37.6453 101.299 43.0853 101.085 48.504 100.872C53.9227 100.659 59.064 100.488 63.928 100.36C65.976 100.275 67.6613 100.595 68.984 101.32C70.3067 102.003 70.968 103.133 70.968 104.712C70.968 106.419 70.4987 107.656 69.56 108.424C68.664 109.192 67.3413 109.619 65.592 109.704C59.6187 109.96 53.7093 110.152 47.864 110.28C42.0187 110.408 35.9813 110.515 29.752 110.6ZM72.888 122.632C71.736 122.632 70.712 122.269 69.816 121.544C68.9627 120.819 68.536 119.816 68.536 118.536C68.536 117.256 68.92 116.275 69.688 115.592C70.4987 114.909 71.5653 114.568 72.888 114.568C73.144 114.568 73.5067 114.568 73.976 114.568C74.4453 114.568 74.8933 114.568 75.32 114.568V122.632C74.936 122.675 74.5307 122.696 74.104 122.696C73.6773 122.653 73.272 122.632 72.888 122.632ZM23.032 105.288C19.192 104.179 16.2267 103.197 14.136 102.344C12.0453 101.491 10.5947 100.659 9.784 99.848C8.93067 98.9947 8.504 98.0347 8.504 96.968C8.504 94.92 9.336 93.704 11 93.32C12.6213 92.936 14.7547 93.1067 17.4 93.832C20.0453 94.5573 22.8187 95.5813 25.72 96.904L23.032 105.288ZM26.68 112.776C25.6133 112.435 24.696 112.072 23.928 111.688C23.2027 111.304 22.648 110.856 22.264 110.344C21.88 109.832 21.688 109.192 21.688 108.424C21.688 106.803 21.9867 105.523 22.584 104.584C23.1813 103.645 24.0347 103.069 25.144 102.856C26.296 102.643 27.704 102.835 29.368 103.432L26.68 112.776ZM66.872 95.496L65.976 86.664C67.512 86.4933 68.7707 86.4933 69.752 86.664C70.7333 86.8347 71.4587 87.304 71.928 88.072C72.3973 88.7973 72.632 89.9493 72.632 91.528C72.632 93.064 72.1413 94.0453 71.16 94.472C70.1787 94.8987 68.7493 95.24 66.872 95.496ZM71.416 109.32L70.968 99.976C74.552 99.848 77.368 99.8053 79.416 99.848C81.5067 99.8907 82.9787 100.275 83.832 101C84.728 101.683 85.176 102.984 85.176 104.904C85.176 106.653 84.2373 107.827 82.36 108.424C80.5253 108.979 76.8773 109.277 71.416 109.32Z" fill="#800080"/>
</svg>
